<?xml version="1.0" encoding="utf-8"?><!-- Uploaded to: SVG Repo, www.svgrepo.com, Generator: SVG Repo Mixer Tools -->
<svg fill="#000000" width="800px" height="800px" viewBox="0 0 24 24" id="bedroom-8" data-name="Flat Line" xmlns="http://www.w3.org/2000/svg" class="icon flat-line"><path id="secondary" d="M10,5h4a1,1,0,0,1,1,1V22a1,1,0,0,1-1,1H9a0,0,0,0,1,0,0V6a1,1,0,0,1,1-1Z" transform="translate(26 2) rotate(90)" style="fill: rgb(44, 169, 188); stroke-width: 2;"></path><path id="primary" d="M7,11H3V7A2,2,0,0,1,5,5H5A2,2,0,0,1,7,7ZM5,17v2m14-2v2m2-3V12a1,1,0,0,0-1-1H3v5a1,1,0,0,0,1,1H20A1,1,0,0,0,21,16Z" style="fill: none; stroke: rgb(0, 0, 0); stroke-linecap: round; stroke-linejoin: round; stroke-width: 2;"></path></svg>