<svg id="Camada_1" data-name="Camada 1" xmlns="http://www.w3.org/2000/svg" viewBox="0 0 358.7 377.58"><defs><style>.cls-1{fill:#fff;stroke:#1d1d1b;stroke-miterlimit:10;}</style></defs><path class="cls-1" d="M331.53,384.62l-19.19,9.6L291,404.91l-22.72,11.36A44.15,44.15,0,0,1,209,396.54l-77-153.88a44.16,44.16,0,0,1,19.74-59.24l63.28-31.64a44.14,44.14,0,0,1,59.23,19.73l47.2,94.36-21.38,10.69L254,184.35a20.39,20.39,0,0,0-27.36-9.11l-63,31.52a20.39,20.39,0,0,0-9.12,27.35L229.32,383.7a20.39,20.39,0,0,0,27.36,9.11l22.58-11.3,21.38-10.69,19.06-9.53a20.38,20.38,0,0,0,9.11-27.35l-17-34,21.38-10.69,18.06,36.12A44.13,44.13,0,0,1,331.53,384.62Z" transform="translate(-126.88 -146.6)"/><path class="cls-1" d="M460.67,487.36,397.4,519a44.16,44.16,0,0,1-59.24-19.74L291,404.91l21.37-10.69,46.13,92.21a20.39,20.39,0,0,0,27.35,9.12l63-31.53A20.39,20.39,0,0,0,458,436.67L383.14,287.08A20.38,20.38,0,0,0,355.79,278l-22.59,11.3L311.82,300l-19.06,9.53a20.39,20.39,0,0,0-9.11,27.36l17,34-21.38,10.69L261.2,345.39a44.15,44.15,0,0,1,19.73-59.23l19.19-9.6,21.38-10.69,22.71-11.36a44.14,44.14,0,0,1,59.23,19.74l77,153.87A44.16,44.16,0,0,1,460.67,487.36Z" transform="translate(-126.88 -146.6)"/></svg>